# Alias OBJ Model File
# Exported from SketchUp, (c) 2000-2012 Trimble Navigation Limited
# File units = meters

mtllib Cylinder Hell.mtl

g Mesh1 Model

usemtl Stone_Sandstone_Ashlar_Light
v -1.89926 0 -0.594061
vt 1.03853 0.649673
vn 0 -1 -0
v -1.94184 0 0.435158
vt 1.06181 -0.475895
v -1.9883 0 -0.082254
vt 1.08722 0.0899541
f 1/1/1 2/2/1 3/3/1

v -1.76304 0 0.922916
vt 0.964045 -1.00931
f 2/2/1 1/1/1 4/4/1

v -1.68079 0 -1.06538
vt 0.919068 1.16512
f 4/4/1 1/1/1 5/5/1

vt 0.284876 0
vn -0.954402 0 -0.298523
v -1.68079 127.74 -1.06538
vt -8.32667e-017 139.698
vn -0.844618 0 -0.535369
vt -8.32667e-017 0
f 1/6/2 6/7/3 5/8/3

v -1.89926 127.74 -0.594061
vt 0.284876 139.698
f 6/7/3 1/6/2 7/9/2

vt 0.569752 0
vn -0.999145 0 -0.0413337
f 3/10/4 7/9/2 1/6/2

v -1.9883 127.74 -0.082254
vt 0.569752 139.698
f 7/9/2 3/10/4 8/11/4

vt 0.854627 0
vn -0.975798 0 0.218673
f 2/12/5 8/11/4 3/10/4

v -1.94184 127.74 0.435158
vt 0.854627 139.698
f 8/11/4 2/12/5 9/13/5

vt 1.1395 0
vn -0.885952 0 0.463777
f 4/14/6 9/13/5 2/12/5

v -1.76304 127.74 0.922916
vt 1.1395 139.698
f 9/13/5 4/14/6 10/15/6

v -1.4641 0 1.34778
vt 1.42438 0
vn -0.73573 0 0.677275
f 11/16/7 10/15/6 4/14/6

v -1.4641 127.74 1.34778
vt 1.42438 139.698
f 10/15/6 11/16/7 12/17/7

v -1.06538 127.74 1.68079
vt 1.70925 139.698
vn -0.535369 0 0.844618
f 11/16/7 13/18/8 12/17/7

v -1.06538 0 1.68079
vt 1.70925 0
f 13/18/8 11/16/7 14/19/8

vt 0.800581 -1.47395
v -1.34778 0 -1.4641
vt 0.736974 1.60116
vt 0.582559 -1.83814
f 11/20/1 15/21/1 14/22/1

f 11/20/1 5/5/1 15/21/1

f 4/4/1 5/5/1 11/20/1

vt 6.83702 0
v -1.34778 127.74 -1.4641
vt 6.55214 139.698
vn -0.677275 0 -0.73573
vt 6.55214 0
f 5/23/3 16/24/9 15/25/9

vt 6.83702 139.698
f 16/24/9 5/23/3 6/26/3

usemtl FrontColor
vt -66.1729 41.9442
vn 0 1 -0
v -1.64336 127.74 -0.734423
vt -64.6991 28.9143
vt -53.0621 57.6418
f 6/27/10 17/28/10 16/29/10

v -1.77744 127.74 -0.284066
vt -69.9781 11.1837
f 6/27/10 18/30/10 17/28/10

vt -74.774 23.3882
f 7/31/10 18/30/10 6/27/10

v -1.7904 127.74 0.185649
vt -70.4882 -7.30903
f 18/30/10 7/31/10 19/32/10

vt -69.4112 -36.3353
f 7/31/10 10/33/10 19/32/10

vt -76.4503 -17.1322
f 7/31/10 9/34/10 10/33/10

vt -78.2795 3.23835
f 9/34/10 7/31/10 8/35/10

v -1.68134 127.74 0.642713
vt -66.1947 -25.3037
f 19/32/10 10/33/10 20/36/10

vt -57.6418 -53.0621
f 20/36/10 10/33/10 12/37/10

v -1.45771 127.74 1.05598
vt -57.3901 -41.5739
f 20/36/10 12/37/10 21/38/10

vt -41.9442 -66.1729
f 21/38/10 12/37/10 13/39/10

v -1.13473 127.74 1.39728
vt -44.6744 -55.011
f 21/38/10 13/39/10 22/40/10

v -0.734423 127.74 1.64336
vt -28.9143 -64.6991
f 22/40/10 13/39/10 23/41/10

v -0.594061 127.74 1.89926
vt -23.3882 -74.774
f 23/41/10 13/39/10 24/42/10

usemtl Stone_Sandstone_Ashlar_Light
vt 1.99413 139.698
vn -0.298523 0 0.954402
f 14/19/8 24/43/11 13/18/8

v -0.594061 0 1.89926
vt 1.99413 0
f 24/43/11 14/19/8 25/44/11

v -0.922916 0 -1.76304
vt 0.504656 1.92809
vt 0.324837 -2.07706
f 14/22/1 26/45/1 25/46/1

f 14/22/1 15/21/1 26/45/1

vt 6.26727 0
vn -0.463777 0 -0.885952
f 16/24/9 26/47/12 15/25/9

v -0.922916 127.74 -1.76304
vt 6.26727 139.698
f 26/47/12 16/24/9 27/48/12

usemtl FrontColor
v -1.05598 127.74 -1.45771
vt -41.5739 57.3901
vt -36.3353 69.4112
f 16/29/10 28/49/10 27/50/10

v -1.39728 127.74 -1.13473
vt -55.011 44.6744
f 16/29/10 29/51/10 28/49/10

f 16/29/10 17/28/10 29/51/10

vt -9.24989 5029.13
vn 0.912976 0 0.408013
v -1.39728 125.66 -1.13473
vt 9.24989 4947.24
vn 0.776266 0 0.630406
vt 9.24989 5029.13
f 17/52/13 30/53/14 29/54/14

v -1.64336 125.66 -0.734423
vt -9.24989 4947.24
f 30/53/14 17/52/13 31/55/13

vn 0.987469 0 0.157815
f 18/52/15 31/53/13 17/54/13

v -1.77744 125.66 -0.284066
f 31/53/13 18/52/15 32/55/15

vn 0.994667 0 -0.103138
f 19/52/16 32/53/15 18/54/15

v -1.7904 125.66 0.185649
f 32/53/15 19/52/16 33/55/16

vn 0.93408 0 -0.357063
f 20/52/17 33/53/16 19/54/16

v -1.68134 125.66 0.642713
f 33/53/16 20/52/17 34/55/17

vn 0.809838 0 -0.586654
f 21/52/18 34/53/17 20/54/17

v -1.45771 125.66 1.05598
f 34/53/17 21/52/18 35/55/18

vn 0.630406 0 -0.776266
f 22/52/19 35/53/18 21/54/18

v -1.13473 125.66 1.39728
f 35/53/18 22/52/19 36/55/19

v -0.734423 125.66 1.64336
vn 0.408013 0 -0.912976
f 22/54/19 37/55/20 36/53/19

f 37/55/20 22/54/19 23/52/20

v -0.284066 125.66 1.77744
vn 0.157815 0 -0.987469
f 23/54/20 38/55/21 37/53/20

v -0.284066 127.74 1.77744
f 38/55/21 23/54/20 39/52/21

vt -11.1837 -69.9781
f 23/41/10 24/42/10 39/56/10

v -0.082254 127.74 1.9883
vt -3.23835 -78.2795
f 39/56/10 24/42/10 40/57/10

usemtl Stone_Sandstone_Ashlar_Light
vt 2.27901 139.698
vn -0.0413337 0 0.999145
f 25/44/11 40/58/22 24/43/11

v -0.082254 0 1.9883
vt 2.27901 0
f 40/58/22 25/44/11 41/59/22

v -0.435158 0 -1.94184
vt 0.237948 2.12362
vt 0.044977 -2.17443
f 25/46/1 42/60/1 41/61/1

f 25/46/1 26/45/1 42/60/1

vt 5.98239 0
vn -0.218673 0 -0.975798
f 27/48/12 42/62/23 26/47/12

v -0.435158 127.74 -1.94184
vt 5.98239 139.698
f 42/62/23 27/48/12 43/63/23

usemtl FrontColor
v -0.642713 127.74 -1.68134
vt -25.3037 66.1947
vt -17.1322 76.4503
f 27/50/10 44/64/10 43/65/10

f 27/50/10 28/49/10 44/64/10

v -1.05598 125.66 -1.45771
vn 0.586654 0 0.809838
vn 0.357063 0 0.93408
f 45/55/24 44/54/25 28/52/24

v -0.642713 125.66 -1.68134
f 44/54/25 45/55/24 46/53/25

v -0.185649 127.74 -1.7904
vn 0.103138 0 0.994667
f 46/55/25 47/54/26 44/52/25

v -0.185649 125.66 -1.7904
f 47/54/26 46/55/25 48/53/26

v 0.284066 127.74 -1.77744
vn -0.157815 0 0.987469
f 48/55/26 49/54/27 47/52/26

v 0.284066 125.66 -1.77744
f 49/54/27 48/55/26 50/53/27

v 0.734423 127.74 -1.64336
vn -0.408013 0 0.912976
f 50/55/27 51/54/28 49/52/27

v 0.734423 125.66 -1.64336
f 51/54/28 50/55/27 52/53/28

v 1.13473 127.74 -1.39728
vn -0.630406 0 0.776266
f 52/55/28 53/54/29 51/52/28

v 1.13473 125.66 -1.39728
f 53/54/29 52/55/28 54/53/29

v 1.45771 125.66 -1.05598
vn -0.809838 0 0.586654
f 55/53/30 53/52/29 54/55/29

v 1.45771 127.74 -1.05598
f 53/52/29 55/53/30 56/54/30

v 1.68134 125.66 -0.642713
vn -0.93408 0 0.357063
f 57/53/31 56/52/30 55/55/30

v 1.68134 127.74 -0.642713
f 56/52/30 57/53/31 58/54/31

v 1.7904 125.66 -0.185649
vn -0.994667 0 0.103138
f 59/53/32 58/52/31 57/55/31

v 1.7904 127.74 -0.185649
f 58/52/31 59/53/32 60/54/32

v 1.77744 125.66 0.284066
vn -0.987469 0 -0.157815
f 61/53/33 60/52/32 59/55/32

v 1.77744 127.74 0.284066
f 60/52/32 61/53/33 62/54/33

v 1.64336 125.66 0.734423
vn -0.912976 0 -0.408013
f 63/53/34 62/52/33 61/55/33

v 1.64336 127.74 0.734423
f 62/52/33 63/53/34 64/54/34

v 1.39728 125.66 1.13473
vn -0.776266 0 -0.630406
f 65/53/35 64/52/34 63/55/34

v 1.39728 127.74 1.13473
f 64/52/34 65/53/35 66/54/35

v 1.05598 127.74 1.45771
vn -0.586654 0 -0.809838
f 65/55/35 67/54/36 66/52/35

v 1.05598 125.66 1.45771
f 67/54/36 65/55/35 68/53/36

v 0.642713 127.74 1.68134
vn -0.357063 0 -0.93408
f 68/55/36 69/54/37 67/52/36

v 0.642713 125.66 1.68134
f 69/54/37 68/55/36 70/53/37

v 0.185649 127.74 1.7904
vn -0.103138 0 -0.994667
f 70/55/37 71/54/38 69/52/37

v 0.185649 125.66 1.7904
f 71/54/38 70/55/37 72/53/38

f 72/55/38 39/54/21 71/52/38

f 39/54/21 72/55/38 38/53/21

vt 7.30903 -70.4882
f 39/56/10 40/57/10 71/66/10

v 0.435158 127.74 1.94184
vt 17.1322 -76.4503
f 71/66/10 40/57/10 73/67/10

usemtl Stone_Sandstone_Ashlar_Light
vt 2.56388 139.698
vn 0.218673 0 0.975798
f 41/59/22 73/68/39 40/58/22

v 0.435158 0 1.94184
vt 2.56388 0
f 73/68/39 41/59/22 74/69/39

v 0.082254 0 -1.9883
vt -0.044977 2.17443
vt -0.237948 -2.12362
f 41/61/1 75/70/1 74/71/1

f 41/61/1 42/60/1 75/70/1

vt 5.69752 0
vn 0.0413337 0 -0.999145
f 43/63/23 75/72/40 42/62/23

v 0.082254 127.74 -1.9883
vt 5.69752 139.698
f 75/72/40 43/63/23 76/73/40

usemtl FrontColor
vt -7.30903 70.4882
vt 3.23835 78.2795
f 43/65/10 47/74/10 76/75/10

f 43/65/10 44/64/10 47/74/10

vt 11.1837 69.9781
f 76/75/10 47/74/10 49/76/10

v 0.594061 127.74 -1.89926
vt 23.3882 74.774
f 76/75/10 49/76/10 77/77/10

vt 28.9143 64.6991
f 77/77/10 49/76/10 51/78/10

v 1.06538 127.74 -1.68079
vt 41.9442 66.1729
f 77/77/10 51/78/10 78/79/10

vt 44.6744 55.011
f 78/79/10 51/78/10 53/80/10

v 1.4641 127.74 -1.34778
vt 57.6418 53.0621
f 78/79/10 53/80/10 79/81/10

vt 57.3901 41.5739
f 79/81/10 53/80/10 56/82/10

vt 66.1947 25.3037
f 79/81/10 56/82/10 58/83/10

v 1.76304 127.74 -0.922916
vt 69.4112 36.3353
f 79/81/10 58/83/10 80/84/10

vt 70.4882 7.30903
f 80/84/10 58/83/10 60/85/10

v 1.94184 127.74 -0.435158
vt 76.4503 17.1322
f 80/84/10 60/85/10 81/86/10

v 1.89926 127.74 0.594061
vt 74.774 -23.3882
f 81/86/10 60/85/10 82/87/10

vt 69.9781 -11.1837
f 62/88/10 82/87/10 60/85/10

v 1.68079 127.74 1.06538
vt 66.1729 -41.9442
f 62/88/10 83/89/10 82/87/10

vt 64.6991 -28.9143
f 64/90/10 83/89/10 62/88/10

vt 55.011 -44.6744
f 66/91/10 83/89/10 64/90/10

v 1.34778 127.74 1.4641
vt 53.0621 -57.6418
f 66/91/10 84/92/10 83/89/10

vt 41.5739 -57.3901
f 67/93/10 84/92/10 66/91/10

v 0.922916 127.74 1.76304
vt 36.3353 -69.4112
f 67/93/10 85/94/10 84/92/10

vt 25.3037 -66.1947
f 69/95/10 85/94/10 67/93/10

f 69/95/10 73/67/10 85/94/10

f 71/66/10 73/67/10 69/95/10

usemtl Stone_Sandstone_Ashlar_Light
vt 2.84876 139.698
vn 0.463777 0 0.885952
f 74/69/39 85/96/41 73/68/39

v 0.922916 0 1.76304
vt 2.84876 0
f 85/96/41 74/69/39 86/97/41

v 0.594061 0 -1.89926
vt -0.324837 2.07706
vt -0.504656 -1.92809
f 74/71/1 87/98/1 86/99/1

f 74/71/1 75/70/1 87/98/1

vt 5.41264 0
vn 0.298523 0 -0.954402
f 76/73/40 87/100/42 75/72/40

vt 5.41264 139.698
f 87/100/42 76/73/40 77/101/42

v 1.06538 0 -1.68079
vt 5.12776 0
vn 0.535369 0 -0.844618
f 77/101/42 88/102/43 87/100/42

vt 5.12776 139.698
f 88/102/43 77/101/42 78/103/43

v 1.4641 0 -1.34778
vt 4.84289 0
vn 0.73573 0 -0.677275
f 78/103/43 89/104/44 88/102/43

vt 4.84289 139.698
f 89/104/44 78/103/43 79/105/44

vt 4.55801 139.698
vn 0.885952 0 -0.463777
f 80/106/45 89/104/44 79/105/44

v 1.76304 0 -0.922916
vt 4.55801 0
f 89/104/44 80/106/45 90/107/45

vt 4.27314 139.698
vn 0.975798 0 -0.218673
f 81/108/46 90/107/45 80/106/45

v 1.94184 0 -0.435158
vt 4.27314 0
f 90/107/45 81/108/46 91/109/46

v 1.9883 127.74 0.082254
vt 3.98826 139.698
vn 0.999145 0 0.0413337
f 92/110/47 91/109/46 81/108/46

v 1.9883 0 0.082254
vt 3.98826 0
f 91/109/46 92/110/47 93/111/47

vt 3.70338 139.698
vn 0.954402 0 0.298523
f 82/112/48 93/111/47 92/110/47

v 1.89926 0 0.594061
vt 3.70338 0
f 93/111/47 82/112/48 94/113/48

vt 3.41851 139.698
vn 0.844618 0 0.535369
f 83/114/49 94/113/48 82/112/48

v 1.68079 0 1.06538
vt 3.41851 0
f 94/113/48 83/114/49 95/115/49

vt 3.13363 139.698
vn 0.677275 0 0.73573
f 84/116/50 95/115/49 83/114/49

v 1.34778 0 1.4641
vt 3.13363 0
f 95/115/49 84/116/50 96/117/50

f 84/116/50 86/97/41 96/117/50

f 86/97/41 84/116/50 85/96/41

vt -0.582559 1.83814
vt -0.736974 -1.60116
f 86/99/1 88/118/1 96/119/1

f 86/99/1 87/98/1 88/118/1

vt -0.800581 1.47395
f 96/119/1 88/118/1 89/120/1

vt -0.919068 -1.16512
f 96/119/1 89/120/1 95/121/1

vt -0.964045 1.00931
f 95/121/1 89/120/1 90/122/1

vt -1.03853 -0.649673
f 95/121/1 90/122/1 94/123/1

vt -1.06181 0.475895
f 94/123/1 90/122/1 91/124/1

vt -1.08722 -0.0899541
f 94/123/1 91/124/1 93/125/1

usemtl FrontColor
vt 78.2795 -3.23835
f 81/86/10 82/87/10 92/126/10

f 28/54/24 30/55/14 45/53/24

f 30/55/14 28/54/24 29/52/14

