# Blender v2.75 (sub 0) OBJ File: ''
# www.blender.org
o Circle.000
v 2.229651 -0.000000 0.923550
v 2.229651 0.387330 0.923550
v 2.006633 0.387330 1.340787
v 1.340790 -0.000000 2.006631
v 1.340790 0.387330 2.006631
v 0.923552 0.387330 2.229650
v 1.706502 -0.000000 1.706499
v 1.706502 0.387330 1.706499
v 2.006633 -0.000000 1.340787
v 0.923552 -0.000000 2.229650
v 1.401678 -0.000000 1.401676
v 1.648198 -0.000000 1.101289
v 1.401678 0.387330 1.401676
v 1.831380 -0.000000 0.758581
v 1.831380 0.387330 0.758581
v 1.101292 -0.000000 1.648197
v 1.101292 0.387330 1.648197
v 1.401678 0.387330 1.401676
v 1.401678 -0.000000 1.401676
v 1.648198 0.387330 1.101289
v 1.648198 -0.000000 1.101289
v 1.831380 0.387330 0.758581
v 0.758583 -0.000000 1.831379
v 0.758583 0.387330 1.831379
v 1.101292 -0.000000 1.648197
v 0.758583 -0.000000 1.831379
v 1.101292 0.387330 1.648197
v 0.758583 0.387330 1.831379
v 1.648198 0.387330 1.101289
v 1.831380 -0.000000 0.758581
vt 0.377811 0.000061
vt 0.377811 0.999938
vt 0.000061 0.999938
vt 0.000061 0.000061
vt 0.463553 0.094579
vt 0.463995 0.820016
vt 0.361896 0.820556
vt 0.157255 0.096199
vt 0.157697 0.821636
vt 0.055598 0.822176
vt 0.259354 0.095659
vt 0.259797 0.821096
vt 0.361454 0.095119
vt 0.055156 0.096740
vt 0.631057 0.114827
vt 0.725697 0.717837
vt 0.655501 0.786767
vt 0.744935 0.723296
vt 0.737312 0.036202
vt 0.824601 0.101788
vt 0.389737 0.230128
vt 0.389632 0.640486
vt 0.234601 0.640142
vt 0.333593 0.321690
vt 0.334353 0.570853
vt 0.249499 0.573098
vt 0.248739 0.323935
vt 0.164645 0.575343
vt 0.163885 0.326180
vt 0.079791 0.577588
vt 0.418447 0.319446
vt 0.419207 0.568609
vt 0.797514 0.770296
vt 0.803953 0.094777
vt 0.890004 0.303976
vt 0.716517 0.030908
vt 0.589626 0.974434
vt 0.550855 0.343307
vt 0.868194 0.942128
vt 0.674585 0.790842
vt 0.608285 0.977211
vt 0.570945 0.345336
vt 0.910175 0.312675
vt 0.886921 0.950384
vt 0.816632 0.777168
vt 0.651663 0.118438
vt 0.234706 0.229784
vt 0.079031 0.328425
vn -0.923900 -0.000000 0.382700
vn 0.881900 0.000000 0.471400
vn 0.471400 0.000000 0.881900
vn 0.634400 -0.000000 0.773000
vn 0.773000 -0.000000 0.634400
vn 0.000000 -1.000000 -0.000000
vn -0.000000 1.000000 0.000000
vn 0.382700 0.000000 -0.923900
vn -0.634400 0.000000 -0.773000
vn -0.773000 0.000000 -0.634400
vn -0.881900 0.000000 -0.471400
vn -0.471400 0.000000 -0.881900
s 1
f 10/1/1 6/2/1 28/3/1
f 26/4/1 10/1/1 28/3/1
f 1/5/2 2/6/2 3/7/2
f 4/8/3 5/9/3 6/10/3
f 7/11/4 8/12/4 5/9/4
f 9/13/5 3/7/5 8/12/5
f 9/13/2 1/5/2 3/7/2
f 10/14/3 4/8/3 6/10/3
f 4/8/4 7/11/4 5/9/4
f 7/11/5 9/13/5 8/12/5
f 9/15/6 11/16/6 12/17/6
f 13/18/7 8/19/7 3/20/7
f 14/21/8 15/22/8 2/23/8
f 16/24/9 17/25/9 18/26/9
f 19/27/10 18/26/10 20/28/10
f 21/29/11 20/28/11 22/30/11
f 23/31/12 24/32/12 17/25/12
f 25/33/6 4/34/6 10/35/6
f 11/16/6 9/15/6 7/36/6
f 12/17/6 14/37/6 1/38/6
f 10/35/6 26/39/6 25/33/6
f 9/15/6 12/17/6 1/38/6
f 4/34/6 25/33/6 11/16/6
f 11/16/6 7/36/6 4/34/6
f 27/40/7 28/41/7 6/42/7
f 2/43/7 15/44/7 29/45/7
f 5/46/7 27/40/7 6/42/7
f 3/20/7 29/45/7 13/18/7
f 29/45/7 3/20/7 2/43/7
f 13/18/7 5/46/7 8/19/7
f 5/46/7 13/18/7 27/40/7
f 1/47/8 14/21/8 2/23/8
f 19/27/9 16/24/9 18/26/9
f 21/29/10 19/27/10 20/28/10
f 30/48/11 21/29/11 22/30/11
f 16/24/12 23/31/12 17/25/12
